<?xml version="1.0" encoding="UTF-8"?>
<svg id="Layer_1" xmlns="http://www.w3.org/2000/svg" version="1.1" viewBox="0 0 211 211">
  <!-- Generator: Adobe Illustrator 29.5.1, SVG Export Plug-In . SVG Version: 2.1.0 Build 141)  -->
  <defs>
    <style>
      .st0 {
        fill: #f3c736;
      }
    </style>
  </defs>
  <circle class="st0" cx="113.6" cy="90.7" r="3.6"/>
  <path class="st0" d="M72.8,100.3c1,0,1.8-.8,1.8-1.8s-.8-1.8-1.8-1.8-1.8.9-1.8,1.8.8,1.8,1.8,1.8Z"/>
  <path class="st0" d="M76.6,85.9c2,0,3.6-1.6,3.6-3.6s-1.6-3.6-3.6-3.6-3.6,1.6-3.6,3.6,1.6,3.6,3.6,3.6Z"/>
  <path class="st0" d="M135.7,102c2.9,0,5.3-2.4,5.3-5.3s-2.4-5.3-5.3-5.3-5.3,2.4-5.3,5.3,2.3,5.3,5.3,5.3Z"/>
  <path class="st0" d="M126.9,78.9c1,0,1.8-.8,1.8-1.8s-.8-1.8-1.8-1.8-1.8.8-1.8,1.8.8,1.8,1.8,1.8Z"/>
  <circle class="st0" cx="123.5" cy="148.3" r="9.2"/>
  <path class="st0" d="M89,134.8c-7.1,0-12.9,5.8-12.9,12.9s5.8,12.9,12.9,12.9,12.9-5.8,12.9-12.9-5.8-12.9-12.9-12.9ZM89,151.4c-2,0-3.7-1.6-3.7-3.7s1.6-3.7,3.7-3.7,3.7,1.6,3.7,3.7-1.7,3.7-3.7,3.7Z"/>
  <path class="st0" d="M209.6,183.4L113.4,18.4c-1.6-2.8-4.7-4.5-7.9-4.5s-6.3,1.7-7.9,4.5L1.4,183.4c-1.7,2.8-1.7,6.3,0,9.2,1.6,2.8,4.7,4.6,7.9,4.6h192.5c3.3,0,6.3-1.8,7.9-4.6,1.6-2.9,1.6-6.4-.1-9.2h0ZM144,96.7c0,4.6-3.7,8.3-8.3,8.3s-8.3-3.7-8.3-8.3,3.7-8.3,8.3-8.3,8.3,3.7,8.3,8.3ZM126.9,72.3c2.6,0,4.8,2.2,4.8,4.8s-2.2,4.8-4.8,4.8-4.8-2.2-4.8-4.8,2.1-4.8,4.8-4.8ZM120.2,90.7c0,3.7-3,6.6-6.6,6.6s-6.6-3-6.6-6.6,3-6.6,6.6-6.6,6.6,2.9,6.6,6.6ZM76.6,75.6c3.7,0,6.6,3,6.6,6.6s-3,6.6-6.6,6.6-6.6-3-6.6-6.6,3-6.6,6.6-6.6ZM72.8,93.7c2.6,0,4.8,2.2,4.8,4.8s-2.2,4.8-4.8,4.8-4.8-2.2-4.8-4.8,2.1-4.8,4.8-4.8ZM144.2,176.1c0,3.6-3,6.6-6.6,6.6h-66c-3.6,0-6.6-3-6.6-6.6v-32.1c0-19,13.1-35.4,30.9-39.5l-4.6-12.7c-.8-2.3-.7-4.9.4-7l7.3-14.3c-1.5-1.5-2.4-3.6-2.4-5.8,0-4.7,3.8-8.4,8.4-8.4s8.4,3.8,8.4,8.4-3.8,8.4-8.4,8.4h-.3l-7.4,14.6c-.3.6-.4,1.4-.1,2l5,14c.4,0,.9-.1,1.3-.1,22.4-.6,40.7,17.4,40.7,39.6v32.9Z"/>
</svg>