<?xml version="1.0" encoding="UTF-8"?>
<svg id="Layer_1" data-name="Layer 1" xmlns="http://www.w3.org/2000/svg" version="1.1" viewBox="0 0 803.3 164.6">
  <defs>
    <style>
      .cls-1 {
        fill: #fff;
        stroke-width: 0px;
      }
    </style>
  </defs>
  <g>
    <g>
      <path class="cls-1" d="M46.8,82.4c2.6-1.6,8.3-7.3,9.9-9.9,1.6-2.1,2.1-4.7,2.1-7.3V20c0-2.6-.5-5.2-2.1-7.3-1.6-2.6-7.3-8.3-9.9-9.9-2.1-1.6-5.7-2.1-7.8-2.1H0v84.2h38.5c3.1,0,6.2-1.6,8.3-2.6ZM11.4,74.1V11.7h27.5c2.1,1,6.8,5.2,8.3,7.8v45.7c0,2.6-6.2,7.8-8.3,8.8H11.4Z"/>
      <path class="cls-1" d="M172.5,49.6h18.7l20.3,34.8h12.5l-20.8-35.3c2.1,0,4.7-1,6.8-2.6,2.1-1.6,6.2-5.7,7.3-7.3,1.6-2.6,2.6-5.2,2.6-7.8v-12.5c0-2.6-1-5.7-2.6-7.8-1-1.6-5.7-6.2-7.3-7.3-2.6-1.6-6.2-3.1-9.4-3.1h-39.5v84.2h11.4v-35.3ZM172.5,11.7h28.6c2.1,0,5.7,4.7,6.8,6.2v15.1c-1,2.1-5.2,5.7-7.8,5.7h-27.5V11.7Z"/>
      <polygon class="cls-1" points="263.5 85 274.9 85 274.9 11.7 298.8 11.7 298.8 1.3 239.6 1.3 239.6 11.7 263.5 11.7 263.5 85"/>
      <path class="cls-1" d="M339.4,85h11.4v-37.9L377.3.8h-12.5s-19.8,34.8-19.8,34.3L325.3.8h-12.5l26.5,46.2v37.9Z"/>
      <polygon class="cls-1" points="113.3 85 137.2 85 137.2 74.1 113.3 74.1 113.3 11.7 137.2 11.7 137.2 1.3 78 1.3 78 11.7 101.9 11.7 101.9 74.1 78 74.1 78 85 101.9 85 113.3 85"/>
    </g>
    <g>
      <path class="cls-1" d="M491.5,85.2v-.5l-20.8-35.3c2.1,0,4.7-1,6.8-2.6,2.1-1.6,6.2-5.7,7.3-7.3,1.6-2.6,2.6-5.2,2.6-7.8v-12.5c0-2.6-1-5.7-2.6-7.8-1-1.6-5.7-6.2-7.3-7.3-2.6-1.6-6.2-3.1-9.3-3.1h-39.5v84.2h12v-34.8h18.7l20.3,34.8h11.9ZM440.5,39V12h28.6c2.1,0,5.7,4.7,6.8,6.2v15.1c-1,2.1-5.2,5.7-7.8,5.7h-27.5Z"/>
      <path class="cls-1" d="M559,2.6c-2.1-1-5.7-2.6-8.3-2.6h-21.8c-2.6,0-5.7,1-7.8,2.6-2.6,1.6-8.3,7.3-10.4,9.9-1.6,2.1-2.1,5.2-2.1,7.3v45.7c0,2.6.5,5.2,2.1,7.3,1.6,2.6,7.3,8.3,10.4,9.9,2.1,1,5.2,2.6,7.8,2.6h22.4c2.6,0,5.7-1,8.3-2.6,2.6-1.6,8.3-7.3,9.9-9.9,1.6-2.1,2.1-4.7,2.1-7.3V19.7c0-2.6-.5-5.2-2.1-7.3-2.1-2.1-7.3-7.8-10.4-9.9ZM551.2,74.3h-22.9c-2.1-1-8.3-6.8-8.3-8.8V31.2l37.4,37.4c-1.6,2.6-4.7,5.2-6.2,5.7ZM559.5,20.3v35.3l-37.9-37.9c2.1-2.6,5.2-5.2,6.8-6.2h22.9c2.1,1,6.2,5.2,8.3,7.8,0,0,0,.5,0,1Z"/>
      <path class="cls-1" d="M638.5,81.6c2.1-1.6,6.2-5.7,7.3-7.3,1.6-2.6,2.1-5.2,2.1-7.8v-10.9c0-6.2-2.6-8.8-6.8-12.5,4.2-4.2,6.8-6.8,6.8-12.5v-10.9c0-2.6-.5-5.7-2.1-8.3-1-1.6-5.7-5.7-7.3-7.3-2.6-1.6-6.2-3.1-9.4-3.1h-39.5v84.2h39.5c3.1-.5,6.8-1.6,9.4-3.6ZM601.1,11.4h27.5c2.6,0,6.2,4.2,7.8,6.2,0,0,.5.5.5,1.6v10.4c0,.5,0,1.6-.5,1.6-1,2.1-4.7,6.2-7.3,6.2h-28.1s0-26,0-26ZM601.1,48.3h29.6c2.1,1,4.7,4.2,6.2,5.7,0,0,.5.5.5,1.6v10.4c0,.5,0,1-.5,1.6-1,2.1-4.7,6.2-7.8,6.2h-28.1v-25.5Z"/>
      <path class="cls-1" d="M679.1,83.2c2.1,1,5.2,2.6,7.8,2.6h22.4c2.6,0,5.7-1,8.3-2.6,2.6-1.6,8.3-7.3,9.9-9.9,1.6-2.1,2.1-4.7,2.1-7.3V20.3c0-2.6-.5-5.2-2.1-7.3-1.6-2.6-7.3-8.3-9.9-9.9-2.1-1-5.7-2.6-8.3-2.6h-22.4c-2.6,0-5.7,1-7.8,2.6-2.6,1.6-8.3,7.3-10.4,9.9-1.6,2.1-2.1,5.2-2.1,7.3v45.7c0,2.6.5,5.2,2.1,7.3,1.6,2.6,7.3,7.8,10.4,9.9ZM686.9,11.4h22.9c2.1,1,6.2,5.2,8.3,7.8v35.3l-37.9-37.4c2.1-2.1,5.2-4.7,6.7-5.7ZM678,30.7l37.9,37.9c-2.1,2.1-5.2,4.7-6.8,5.7h-22.9c-2.1-1-8.3-6.8-8.3-8.8V30.7h0Z"/>
      <polygon class="cls-1" points="779.4 84.7 779.4 11.4 803.3 11.4 803.3 1 744 1 744 11.4 767.9 11.4 767.9 84.7 779.4 84.7"/>
    </g>
  </g>
  <g>
    <path class="cls-1" d="M198.9,117.7c-1.3-1.3-3.9-1.9-5.8-1.9h-22.5v48.1h22.5c1.9,0,4.5-.6,5.8-1.9,1.3-.6,3.9-3.2,4.5-4.5,1.3-1.3,1.3-3.2,1.3-5.1v-5.8c0-3.2-1.3-5.1-3.2-7.1,1.9-1.9,3.2-3.9,3.2-7.1v-5.8c0-1.9-.6-3.2-1.3-5.1-.6-.6-3.2-3.2-4.5-3.8ZM196.4,146.6v5.8c-.6,1.9-2.6,3.2-3.2,3.2h-14.1v-12.2h14.1c.6,0,2.6,1.3,3.2,2.6v.6ZM196.4,126.7v5.8c-.6,1.9-2.6,3.2-3.2,3.2h-14.1v-12.2h14.1c.6,0,2.6,1.3,3.2,2.6v.6Z"/>
    <path class="cls-1" d="M245.8,142.7c1.3-.6,3.9-3.2,4.5-4.5,1.3-1.3,1.3-3.2,1.3-5.1v-6.4c0-1.9-.6-3.2-1.3-5.1-.6-1.3-3.2-3.9-4.5-4.5-1.3-1.3-3.9-1.9-5.8-1.9h-22.5v48.1h8.3v-19.2h7.7l10.9,19.2h10.3l-11.5-19.9c.6.6,1.9,0,2.6-.6ZM240,136.3h-14.1v-12.8h14.7c.6,0,1.9,1.9,2.6,2.6v7.7c-.6,1.3-1.9,2.6-3.2,2.6Z"/>
    <polygon class="cls-1" points="266.3 163.2 296.4 163.2 296.4 154.9 274.6 154.9 274.6 143.4 296.4 143.4 296.4 135 274.6 135 274.6 123.5 296.4 123.5 296.4 115.1 266.3 115.1 266.3 163.2"/>
    <polygon class="cls-1" points="349.7 149.1 342 115.8 333 115.8 325.3 149.1 318.2 115.8 309.3 115.8 320.2 163.9 329.8 163.9 337.5 131.8 345.2 163.9 354.8 163.9 365.7 115.8 357.4 115.8 349.7 149.1"/>
    <polygon class="cls-1" points="431.8 149.1 424.1 115.8 415.1 115.8 407.4 149.1 400.3 115.8 391.4 115.8 402.3 163.9 411.9 163.9 419.6 131.8 427.3 163.9 436.9 163.9 447.8 115.8 438.8 115.8 431.8 149.1"/>
    <path class="cls-1" d="M486.3,117.1c-1.3-.6-3.2-1.3-5.1-1.3h-12.2c-1.9,0-3.9.6-5.1,1.3-1.9,1.3-5.1,4.5-5.8,5.8-1.3,1.3-1.3,3.2-1.3,4.5v25c0,1.3.6,3.2,1.3,4.5,1.3,1.3,3.9,4.5,5.8,5.8,1.3.6,3.2,1.3,5.1,1.3h12.2c1.9,0,3.9-.6,5.1-1.3,1.9-1.3,5.1-4.5,5.8-5.8,1.3-1.3,1.3-3.2,1.3-4.5v-25c0-1.3-.6-3.2-1.3-4.5-1.3-1.3-4.5-5.1-5.8-5.8ZM485,127.3v25c-1.3,1.3-2.6,3.2-3.2,3.2h-12.8c-.6-.6-2.6-1.9-3.2-3.2v-25.7c1.3-1.3,2.6-3.2,3.2-3.2h12.8c.6.6,2.6,1.9,3.2,3.2v.6Z"/>
    <path class="cls-1" d="M534.4,142.7c1.3-.6,3.9-3.2,4.5-4.5,1.3-1.3,1.3-3.2,1.3-5.1v-6.4c0-1.9-.6-3.2-1.3-5.1-.6-1.3-3.2-3.9-4.5-4.5-1.3-1.3-3.9-1.9-5.8-1.9h-22.5v48.1h8.3v-19.2h7.7l10.9,19.2h9.6l-11.5-19.9c1.3.6,2.6,0,3.2-.6ZM528.6,136.3h-14.1v-12.8h14.7c.6,0,1.9,1.9,2.6,2.6v7.7c-.6,1.3-2.6,2.6-3.2,2.6Z"/>
    <polygon class="cls-1" points="590.2 115.8 579.3 115.8 563.3 134.4 563.3 115.8 554.9 115.8 554.9 163.9 563.3 163.9 563.3 145.3 580 163.9 590.9 163.9 569 139.5 590.2 115.8"/>
    <path class="cls-1" d="M607.5,124.1h12.8c1.3.6,3.9,3.9,3.9,3.9l8.3-2.6c-.6-1.3-1.3-1.9-1.9-2.6-1.9-2.6-5.8-6.4-10.3-6.4h-12.8c-1.9,0-3.9.6-5.1,1.3-1.9,1.3-5.1,4.5-5.8,5.8-1.3,1.3-1.3,3.2-1.3,4.5v4.5c0,3.9,1.9,7.7,6.4,9l21.2,5.8c.6,0,.6.6.6,1.3v4.5c0,.6-2.6,3.2-3.9,3.9h-12.8c-1.3-.6-3.9-3.9-3.9-3.9l-7.7,2.6c.6,1.3.6,1.9,1.3,2.6,1.9,2.6,5.8,6.4,10.3,6.4h12.8c1.9,0,3.9-.6,5.1-1.3,1.9-1.3,5.1-4.5,5.8-5.8,1.3-1.3,1.3-3.2,1.3-4.5v-4.5c0-4.5-1.9-9-6.4-9.6l-21.2-5.8c-.6,0-.6-.6-.6-1.3v-3.9c0-.6,2.6-3.2,3.9-3.9Z"/>
  </g>
</svg>