<?xml version="1.0" encoding="utf-8"?>
<!-- Generator: Adobe Illustrator 23.0.0, SVG Export Plug-In . SVG Version: 6.00 Build 0)  -->
<svg version="1.1" id="Layer_1" xmlns="http://www.w3.org/2000/svg" xmlns:xlink="http://www.w3.org/1999/xlink" x="0px" y="0px"
	 viewBox="0 0 404.16 292.82" style="enable-background:new 0 0 404.16 292.82;" xml:space="preserve">
<style type="text/css">
	.st0{fill:#FFFFFF;}
</style>
<g>
	
		<image style="overflow:visible;opacity:0.75;" width="396" height="292" xlink:href="6B7B8EA882D6E9B2.png"  transform="matrix(1 0 0 1 3.2328 0.07)">
	</image>
	<g>
		<g>
			<path class="st0" d="M59.71,90.96c2.6-1.56,8.32-7.28,9.87-9.87c1.56-2.08,2.08-4.68,2.08-7.28V28.6c0-2.6-0.52-5.2-2.08-7.28
				c-1.56-2.6-7.28-8.32-9.87-9.87c-2.08-1.56-5.72-2.08-7.8-2.08H12.93v84.19h38.46C54.51,93.56,57.63,92,59.71,90.96z
				 M24.37,82.65V20.28h26.5c0.52,0,1.04,0,1.04,0c2.08,1.04,6.76,5.2,8.32,7.8c0,0,0,0.52,0,1.04v44.69c0,2.6-6.24,7.8-8.32,8.83
				c0,0-0.52,0-1.04,0H24.37z"/>
			<path class="st0" d="M185.47,58.22h18.71l20.27,34.82h12.47L216.13,57.7c2.08,0,4.68-1.04,6.76-2.6
				c2.08-1.56,6.24-5.72,7.28-7.28c1.56-2.6,2.6-5.2,2.6-7.8V27.56c0-2.6-1.04-5.72-2.6-7.8c-1.04-1.56-5.72-6.24-7.28-7.28
				c-2.6-1.56-6.24-3.12-9.35-3.12h-39.5v84.19h11.43V58.22z M185.47,20.28h27.54c0.52,0,0.52,0,1.04,0c2.08,0,5.72,4.68,6.76,6.24
				c0,0,0,1.04,0,1.56v11.95c0,0.52,0,1.56,0,1.56c-1.04,2.08-5.2,5.72-7.8,5.72h-27.54V20.28z"/>
			<polygon class="st0" points="276.42,93.56 287.85,93.56 287.85,20.28 311.76,20.28 311.76,9.89 252.51,9.89 252.51,20.28 
				276.42,20.28 			"/>
			<path class="st0" d="M352.29,93.56h11.43V55.62l26.5-46.25h-12.47c0,0-19.75,34.82-19.75,34.3l-19.75-34.3h-12.47l26.5,46.25
				L352.29,93.56z"/>
			<path class="st0" d="M75.82,210.49v-0.52l-20.79-35.34c2.08,0,4.68-1.04,6.76-2.6c2.08-1.56,6.24-5.72,7.28-7.28
				c1.56-2.6,2.6-5.2,2.6-7.8v-12.47c0-2.6-1.04-5.72-2.6-7.8c-1.04-1.56-5.72-6.24-7.28-7.28c-2.6-1.56-6.24-3.12-9.35-3.12h-39.5
				v84.19h11.95v-34.82h18.71l20.27,34.82H75.82z M24.89,164.24v-27.02h27.54c0.52,0,0.52,0,1.04,0c2.08,0,5.72,4.68,6.76,6.24
				c0,0,0,1.04,0,1.56v11.95c0,0.52,0,1.56,0,1.56c-1.04,2.08-5.2,5.72-7.8,5.72L24.89,164.24z"/>
			<path class="st0" d="M143.38,127.86c-2.08-1.04-5.72-2.6-8.32-2.6h-21.83c-2.6,0-5.72,1.04-7.8,2.6
				c-2.6,1.56-8.32,7.28-10.39,9.87c-1.56,2.08-2.08,5.2-2.08,7.28v45.73c0,2.6,0.52,5.2,2.08,7.28c1.56,2.6,7.28,8.32,10.39,9.87
				c2.08,1.04,5.2,2.6,7.8,2.6h22.35c2.6,0,5.72-1.04,8.32-2.6c2.6-1.56,8.32-7.28,9.87-9.87c1.56-2.08,2.08-4.68,2.08-7.28v-45.73
				c0-2.6-0.52-5.2-2.08-7.28C151.69,135.66,146.49,129.94,143.38,127.86z M135.58,199.58c0,0-0.52,0-1.04,0h-20.79
				c-0.52,0-1.04,0-1.04,0c-2.08-1.04-8.32-6.76-8.32-8.83v-34.3l37.42,37.42C140.26,196.46,137.14,199.06,135.58,199.58z
				 M143.9,145.53v35.34l-37.94-37.94c2.08-2.6,5.2-5.2,6.76-6.24c0,0,0.52,0,1.04,0h20.79c0.52,0,1.04,0,1.04,0
				c2.08,1.04,6.24,5.2,8.32,7.8C143.9,144.49,143.9,145.01,143.9,145.53z"/>
			<path class="st0" d="M222.89,206.85c2.08-1.56,6.24-5.72,7.28-7.28c1.56-2.6,2.08-5.2,2.08-7.8v-10.91
				c0-6.24-2.6-8.83-6.76-12.47c4.16-4.16,6.76-6.76,6.76-12.47v-10.91c0-2.6-0.52-5.72-2.08-8.32c-1.04-1.56-5.72-5.72-7.28-7.28
				c-2.6-1.56-6.24-3.12-9.35-3.12h-39.5v84.19h39.5C216.65,209.97,220.29,208.93,222.89,206.85z M185.47,136.7h27.54
				c2.6,0,6.24,4.16,7.8,6.24c0,0,0.52,0.52,0.52,1.56v10.39c0,0.52,0,1.56-0.52,1.56c-1.04,2.08-4.68,6.24-7.28,6.24h-28.06
				C185.47,162.68,185.47,136.7,185.47,136.7z M185.47,173.59h28.06c0.52,0,1.04,0,1.56,0c2.08,1.04,4.68,4.16,6.24,5.72
				c0,0,0.52,0.52,0.52,1.56v10.39c0,0.52,0,1.04-0.52,1.56c-1.04,2.08-4.68,6.24-7.8,6.24l-28.06,0V173.59z"/>
			<path class="st0" d="M263.43,208.41c2.08,1.04,5.2,2.6,7.8,2.6h22.35c2.6,0,5.72-1.04,8.32-2.6c2.6-1.56,8.32-7.28,9.87-9.87
				c1.56-2.08,2.08-4.68,2.08-7.28v-45.73c0-2.6-0.52-5.2-2.08-7.28c-1.56-2.6-7.28-8.32-9.87-9.87c-2.08-1.04-5.72-2.6-8.32-2.6
				h-22.35c-2.6,0-5.72,1.04-7.8,2.6c-2.6,1.56-8.32,7.28-10.39,9.87c-1.56,2.08-2.08,5.2-2.08,7.28v45.73c0,2.6,0.52,5.2,2.08,7.28
				C254.59,201.14,260.31,206.34,263.43,208.41z M271.22,136.7c0,0,0.52,0,1.04,0h20.79c0.52,0,1.04,0,1.04,0
				c2.08,1.04,6.24,5.2,8.32,7.8c0,0,0,0.52,0,1.04v34.3l-37.94-37.42C266.54,140.33,269.66,137.74,271.22,136.7z M262.39,155.92
				l37.94,37.94c-2.08,2.08-5.2,4.68-6.76,5.72c0,0-0.52,0-1.04,0h-20.79c-0.52,0-1.04,0-1.04,0c-2.08-1.04-8.32-6.76-8.32-8.83
				V155.92z"/>
			<polygon class="st0" points="363.73,209.97 363.73,136.7 387.63,136.7 387.63,126.3 328.39,126.3 328.39,136.7 352.29,136.7 
				352.29,209.97 			"/>
			<polygon class="st0" points="126.23,93.56 150.13,93.56 150.13,82.65 126.23,82.65 126.23,20.28 150.13,20.28 150.13,9.89 
				90.89,9.89 90.89,20.28 114.79,20.28 114.79,82.65 90.89,82.65 90.89,93.56 114.79,93.56 			"/>
			<path class="st0" d="M36.84,244.79c-1.04-1.04-3.12-1.56-4.68-1.56H13.97v38.98h18.19c1.56,0,3.64-0.52,4.68-1.56
				c1.04-0.52,3.12-2.6,3.64-3.64c1.04-1.04,1.04-2.6,1.04-4.16v-4.68c0-2.6-1.04-4.16-2.6-5.72c1.56-1.56,2.6-3.12,2.6-5.72v-4.68
				c0-1.56-0.52-2.6-1.04-4.16C39.96,247.39,37.88,245.31,36.84,244.79z M34.76,268.18v4.68c-0.52,1.56-2.08,2.6-2.6,2.6H20.73
				v-9.87h11.43c0.52,0,2.08,1.04,2.6,2.08V268.18z M34.76,252.07v4.68c-0.52,1.56-2.08,2.6-2.6,2.6H20.73v-9.87h11.43
				c0.52,0,2.08,1.04,2.6,2.08V252.07z"/>
			<path class="st0" d="M74.78,265.06c1.04-0.52,3.12-2.6,3.64-3.64c1.04-1.04,1.04-2.6,1.04-4.16v-5.2c0-1.56-0.52-2.6-1.04-4.16
				c-0.52-1.04-2.6-3.12-3.64-3.64c-1.04-1.04-3.12-1.56-4.68-1.56H51.91v38.98h6.76V266.1h6.24l8.83,15.59h8.32l-9.35-16.11
				C73.22,266.1,74.26,265.58,74.78,265.06z M70.1,259.86H58.67v-10.39H70.1c0,0,0,0,0.52,0c0.52,0,1.56,1.56,2.08,2.08v0.52v5.2
				v0.52C72.18,258.82,71.14,259.86,70.1,259.86z"/>
			<polygon class="st0" points="91.41,281.69 115.83,281.69 115.83,274.94 98.16,274.94 98.16,265.58 115.83,265.58 115.83,258.82 
				98.16,258.82 98.16,249.47 115.83,249.47 115.83,242.71 91.41,242.71 			"/>
			<polygon class="st0" points="158.97,270.26 152.73,243.23 145.46,243.23 139.22,270.26 133.5,243.23 126.23,243.23 
				135.06,282.21 142.86,282.21 149.09,256.23 155.33,282.21 163.13,282.21 171.96,243.23 165.2,243.23 			"/>
			<polygon class="st0" points="225.49,270.26 219.25,243.23 211.98,243.23 205.74,270.26 200.02,243.23 192.75,243.23 
				201.58,282.21 209.38,282.21 215.61,256.23 221.85,282.21 229.65,282.21 238.48,243.23 231.21,243.23 			"/>
			<path class="st0" d="M269.66,244.27c-1.04-0.52-2.6-1.04-4.16-1.04h-1.04h-8.83c-1.56,0-3.12,0.52-4.16,1.04
				c-1.56,1.04-4.16,3.64-4.68,4.68c-1.04,1.04-1.04,2.6-1.04,3.64v8.32v11.95c0,1.04,0.52,2.6,1.04,3.64
				c1.04,1.04,3.12,3.64,4.68,4.68c1.04,0.52,2.6,1.04,4.16,1.04h1.04h8.83c1.56,0,3.12-0.52,4.16-1.04
				c1.56-1.04,4.16-3.64,4.68-4.68c1.04-1.04,1.04-2.6,1.04-3.64v-8.32v-11.95c0-1.04-0.52-2.6-1.04-3.64
				C273.3,247.91,270.7,244.79,269.66,244.27z M268.62,252.59v8.32v11.43v0.52c-1.04,1.04-2.08,2.6-2.6,2.6h-0.52h-9.35h-0.52
				c-0.52-0.52-2.08-1.56-2.6-2.6v-0.52v-8.32v-11.43v-0.52c1.04-1.04,2.08-2.6,2.6-2.6h0.52h9.35h0.52c0.52,0.52,2.08,1.56,2.6,2.6
				V252.59z"/>
			<path class="st0" d="M308.64,265.06c1.04-0.52,3.12-2.6,3.64-3.64c1.04-1.04,1.04-2.6,1.04-4.16v-5.2c0-1.56-0.52-2.6-1.04-4.16
				c-0.52-1.04-2.6-3.12-3.64-3.64c-1.04-1.04-3.12-1.56-4.68-1.56h-18.19v38.98h6.76V266.1h6.24l8.83,15.59h7.8l-9.35-16.11
				C307.08,266.1,308.12,265.58,308.64,265.06z M303.96,259.86h-11.43v-10.39h11.43c0,0,0,0,0.52,0s1.56,1.56,2.08,2.08v0.52v5.2
				v0.52C306.04,258.82,304.48,259.86,303.96,259.86z"/>
			<polygon class="st0" points="353.85,243.23 345.02,243.23 332.03,258.3 332.03,243.23 325.27,243.23 325.27,282.21 
				332.03,282.21 332.03,267.14 345.54,282.21 354.37,282.21 336.7,262.46 			"/>
			<path class="st0" d="M367.89,249.99h0.52h9.35h0.52c1.04,0.52,3.12,3.12,3.12,3.12l6.76-2.08c-0.52-1.04-1.04-1.56-1.56-2.08
				c-1.56-2.08-4.68-5.2-8.32-5.2h-10.39c-1.56,0-3.12,0.52-4.16,1.04c-1.56,1.04-4.16,3.64-4.68,4.68
				c-1.04,1.04-1.04,2.6-1.04,3.64v3.64c0,3.12,1.56,6.24,5.2,7.28l17.15,4.68c0.52,0,0.52,0.52,0.52,1.04v3.64
				c0,0.52-2.08,2.6-3.12,3.12h-0.52h-9.35h-0.52c-1.04-0.52-3.12-3.12-3.12-3.12l-6.24,2.08c0.52,1.04,0.52,1.56,1.04,2.08
				c1.56,2.08,4.68,5.2,8.32,5.2h10.39c1.56,0,3.12-0.52,4.16-1.04c1.56-1.04,4.16-3.64,4.68-4.68c1.04-1.04,1.04-2.6,1.04-3.64
				v-3.64c0-3.64-1.56-7.28-5.2-7.8l-17.15-4.68c-0.52,0-0.52-0.52-0.52-1.04v-3.12C364.77,252.59,366.85,250.51,367.89,249.99z"/>
		</g>
	</g>
</g>
</svg>
